HIERARCHY
ROOT Hips
{
	OFFSET 0.00000 0.00000 0.00000
	CHANNELS 6 Xposition Yposition Zposition Zrotation Yrotation Xrotation 
	JOINT LHipJoint
	{
		OFFSET 0 0 0
		CHANNELS 3 Zrotation Yrotation Xrotation
		JOINT LeftHip
		{
			OFFSET 1.58895 -1.83665 0.71753
			CHANNELS 3 Zrotation Yrotation Xrotation
			JOINT LeftKnee
			{
				OFFSET 2.50528 -6.88321 0.00000
				CHANNELS 3 Zrotation Yrotation Xrotation
				JOINT LeftAnkle
				{
					OFFSET 2.63244 -7.23257 0.00000
					CHANNELS 3 Zrotation Yrotation Xrotation
					JOINT LeftToe
					{
						OFFSET 0.23691 -0.65090 1.72750
						CHANNELS 3 Zrotation Yrotation Xrotation
						End Site
						{
							OFFSET 0.00000 -0.00000 0.92561
						}
					}
				}
			}
		}
	}
	JOINT RHipJoint
	{
		OFFSET 0 0 0
		CHANNELS 3 Zrotation Yrotation Xrotation
		JOINT RightHip
		{
			OFFSET -1.51435 -1.83665 0.71753
			CHANNELS 3 Zrotation Yrotation Xrotation
			JOINT RightKnee
			{
				OFFSET -2.54551 -6.99375 0.00000
				CHANNELS 3 Zrotation Yrotation Xrotation
				JOINT RightAnkle
				{
					OFFSET -2.66027 -7.30903 0.00000
					CHANNELS 3 Zrotation Yrotation Xrotation
					JOINT RightToe
					{
						OFFSET -0.22981 -0.63138 2.03959
						CHANNELS 3 Zrotation Yrotation Xrotation
						End Site
						{
							OFFSET -0.00000 -0.00000 1.07060
						}
					}
				}
			}
		}
	}
	JOINT lowerback
	{
		OFFSET 0 0 0
		CHANNELS 3 Zrotation Yrotation Xrotation
		JOINT Chest
		{
			OFFSET -0.02651 1.86275 -0.11152
			CHANNELS 3 Zrotation Yrotation Xrotation
			JOINT Chest2
			{
				OFFSET 0.01019 1.86224 0.04087
				CHANNELS 3 Zrotation Yrotation Xrotation
				JOINT lowerneck
				{
					OFFSET 0 0 0
					CHANNELS 3 Zrotation Yrotation Xrotation
					JOINT Neck
					{
						OFFSET -0.01926 1.80512 0.08867
						CHANNELS 3 Zrotation Yrotation Xrotation
						JOINT Head
						{
							OFFSET 0.05516 1.76451 -0.38475
							CHANNELS 3 Zrotation Yrotation Xrotation
							End Site
							{
								OFFSET 0.01592 1.82587 -0.14001
							}
						}
					}
				}
				JOINT LeftCollar
				{
					OFFSET 0 0 0
					CHANNELS 3 Zrotation Yrotation Xrotation
					JOINT LeftShoulder
					{
						OFFSET 3.47116 1.51376 0.14491
CHANNELS 3 Zrotation Xrotation Yrotation
						JOINT LeftElbow
						{
OFFSET 0 -4.780950 0.000000
CHANNELS 3 Zrotation Xrotation Yrotation
							JOINT LeftWrist
							{
OFFSET 0 -3.586150 -0.000000
CHANNELS 3 Zrotation Xrotation Yrotation
								JOINT lhand
								{
									OFFSET 0 0 0
CHANNELS 3 Zrotation Xrotation Yrotation
									JOINT LFingers
									{
OFFSET 0 -0.659810 0.000000
CHANNELS 3 Zrotation Xrotation Yrotation
										End Site
										{
OFFSET 0 -0.531960 0.000000
										}
									}
								}
								JOINT LThumb
								{
OFFSET 0 0.000000 0.000000
CHANNELS 3 Zrotation Xrotation Yrotation
									End Site
									{
OFFSET 0 -0.540080 0.540080
									}
								}
							}
						}
					}
				}
				JOINT RightCollar
				{
					OFFSET 0 0 0
					CHANNELS 3 Zrotation Yrotation Xrotation
					JOINT RightShoulder
					{
						OFFSET -3.31725 1.61216 0.35156
CHANNELS 3 Zrotation Xrotation Yrotation
						JOINT RightElbow
						{
OFFSET 0 -4.489130 0.000000
CHANNELS 3 Zrotation Xrotation Yrotation
							JOINT RightWrist
							{
OFFSET 0 -3.705100 0.000000
CHANNELS 3 Zrotation Xrotation Yrotation
								JOINT rhand
								{
									OFFSET 0 0 0
CHANNELS 3 Zrotation Xrotation Yrotation
									JOINT RFingers
									{
OFFSET 0 -0.449140 0.000000
CHANNELS 3 Zrotation Xrotation Yrotation
										End Site
										{
OFFSET 0 -0.362110 0.000000
										}
									}
								}
								JOINT RThumb
								{
OFFSET 0 0.000000 0.000000
CHANNELS 3 Zrotation Xrotation Yrotation
									End Site
									{
OFFSET 0 -0.367630 0.367630
									}
								}
							}
						}
					}
				}
			}
		}
	}
}
MOTION
Frames: 11
Frame Time: 0.008333333333333333
-0.942515 18.208541 5.414519 -5.352446 -10.775757 0.925149 0.000000 0.000000 0.000000 -11.185438 3.141055 17.584520 0.901296 -6.050290 -16.930525 -1.643489 22.737908 -15.069320 0.105243 -2.091088 -5.757512 0.000000 0.000000 0.000000 0.000000 0.000000 0.000000 0.000000 0.000000 0.000000 0.000000 0.000000 0.000000 0.000000 0.000000 0.000000 1.287738 -2.301106 9.449894 0.442794 -2.930285 2.935894 0.064509 -1.463993 -2.285600 4.847294 1.734112 -0.800605 3.322880 1.653708 12.896189 0.331628 1.170996 4.413377 0.000000 0.000000 0.000000 10.678070 19.838358 -50.141138 84.917837 -59.902163 55.600158 9.215917 -23.353498 13.623341 0.000000 0.000000 0.000000 -7.125000 0.000000 0.000000 -12.437439 16.388164 -8.630859 0.000000 0.000000 0.000000 -48.478539 -22.205227 25.803050 -159.490295 -31.251233 -114.206367 17.956533 -61.493430 43.584596 0.000000 0.000000 0.000000 7.125000 0.000000 0.000000 65.919451 61.608408 -34.256780
-0.942385 18.209741 5.423038 -5.361602 -10.681063 0.979693 0.000000 0.000000 0.000000 -11.197985 2.973791 17.550830 0.897074 -6.036453 -16.890328 -1.646457 22.771298 -15.147558 0.095947 -1.997615 -5.499038 0.000000 0.000000 0.000000 0.000000 0.000000 0.000000 0.000000 0.000000 0.000000 0.000000 0.000000 0.000000 0.000000 0.000000 0.000000 1.437788 -2.269822 9.342377 0.437755 -2.876468 2.892328 -0.034007 -1.437297 -2.278502 4.817095 1.748289 -0.648665 3.169271 1.703211 12.885333 0.285383 1.185740 4.380436 0.000000 0.000000 0.000000 10.953325 19.650616 -50.730197 84.959729 -59.903802 55.636380 9.138850 -23.313409 13.638930 0.000000 0.000000 0.000000 -7.125000 0.000000 0.000000 -12.489107 16.377307 -8.671495 0.000000 0.000000 0.000000 -48.127286 -21.866225 24.219103 -159.725734 -30.971370 -114.328220 15.856409 -60.899848 44.092496 0.000000 0.000000 0.000000 7.125000 0.000000 0.000000 65.047053 62.449614 -34.796099
-0.941900 18.211035 5.429367 -5.373803 -10.490591 1.034900 0.000000 0.000000 0.000000 -11.185536 2.823788 17.528289 0.901425 -6.050693 -16.931602 -1.644177 22.744802 -15.083731 0.098548 -2.023756 -5.571354 0.000000 0.000000 0.000000 0.000000 0.000000 0.000000 0.000000 0.000000 0.000000 0.000000 0.000000 0.000000 0.000000 0.000000 0.000000 1.522250 -2.327335 9.240955 0.462705 -2.945137 2.804426 -0.049810 -1.471881 -2.317360 4.890045 1.867186 -0.428772 3.011505 1.881777 13.107014 0.227196 1.273052 4.422738 0.000000 0.000000 0.000000 11.050471 19.713069 -51.009796 85.379393 -59.919113 55.999543 9.229513 -23.267539 13.627478 0.000000 0.000000 0.000000 -7.125000 0.000000 0.000000 -12.428040 16.383385 -8.625269 0.000000 0.000000 0.000000 -47.296870 -21.724638 22.614422 -159.240869 -31.544772 -114.075979 13.065873 -59.257810 44.416146 0.000000 0.000000 0.000000 7.125000 0.000000 0.000000 63.339017 63.408930 -34.805345
-0.943873 18.210217 5.434656 -5.438556 -10.459005 1.042190 0.000000 0.000000 0.000000 -11.091647 2.883153 17.553752 0.905669 -6.064600 -16.972109 -1.632877 22.672936 -15.037112 0.093604 -1.972744 -5.430420 0.000000 0.000000 0.000000 0.000000 0.000000 0.000000 0.000000 0.000000 0.000000 0.000000 0.000000 0.000000 0.000000 0.000000 0.000000 1.595352 -2.443209 9.111489 0.449603 -3.095360 2.788448 -0.092583 -1.546587 -2.269052 4.968751 2.003305 -0.341376 3.001902 2.058277 13.298452 0.218863 1.366289 4.479420 0.000000 0.000000 0.000000 10.941145 19.905632 -50.688400 85.715111 -59.930517 56.290046 9.521723 -23.316035 13.717470 0.000000 0.000000 0.000000 -7.125000 0.000000 0.000000 -12.226518 16.277480 -8.507502 0.000000 0.000000 0.000000 -46.168992 -22.048602 22.674366 -158.311914 -32.622615 -113.583139 10.622862 -56.138455 44.290661 0.000000 0.000000 0.000000 7.125000 0.000000 0.000000 61.149987 64.044193 -33.980949
-0.949872 18.205626 5.438119 -5.420852 -10.595560 0.893539 0.000000 0.000000 0.000000 -11.075793 3.121038 17.699894 0.905846 -6.065271 -16.973779 -1.629626 22.641618 -14.974674 0.111281 -2.150790 -5.922567 0.000000 0.000000 0.000000 0.000000 0.000000 0.000000 0.000000 0.000000 0.000000 0.000000 0.000000 0.000000 0.000000 0.000000 0.000000 1.426051 -2.514689 9.204831 0.423271 -3.204326 2.785668 -0.008628 -1.600808 -2.317363 5.082511 2.029642 -0.352606 3.019986 2.080819 13.369922 0.207203 1.384886 4.510405 0.000000 0.000000 0.000000 10.715084 20.255021 -50.115249 85.870191 -59.935434 56.424267 9.582302 -23.434760 13.728114 0.000000 0.000000 0.000000 -7.125000 0.000000 0.000000 -12.185091 16.263461 -8.481029 0.000000 0.000000 0.000000 -45.781279 -22.231953 24.605935 -157.916873 -33.070886 -113.368863 11.546007 -55.300291 43.751582 0.000000 0.000000 0.000000 7.125000 0.000000 0.000000 61.017404 63.484688 -33.138799
-0.956587 18.203210 5.441556 -5.370638 -10.713445 0.817693 0.000000 0.000000 0.000000 -11.099413 3.305157 17.756270 0.903997 -6.059192 -16.956353 -1.622971 22.605166 -14.974041 0.116709 -2.202310 -6.065054 0.000000 0.000000 0.000000 0.000000 0.000000 0.000000 0.000000 0.000000 0.000000 0.000000 0.000000 0.000000 0.000000 0.000000 0.000000 1.330951 -2.476761 9.491515 0.349977 -3.157398 2.649696 -0.019193 -1.578059 -2.614837 5.179094 1.890142 -0.363346 3.125089 1.876958 13.323325 0.217003 1.292948 4.493815 0.000000 0.000000 0.000000 10.708245 20.593629 -49.906425 85.832714 -59.934249 56.391828 9.438649 -23.439266 13.747589 0.000000 0.000000 0.000000 -7.125000 0.000000 0.000000 -12.281830 16.252591 -8.554558 0.000000 0.000000 0.000000 -45.859024 -21.678140 26.783310 -158.372511 -32.553192 -113.615564 13.838041 -56.676405 43.234203 0.000000 0.000000 0.000000 7.125000 0.000000 0.000000 62.069722 62.556155 -32.669844
-0.961479 18.204621 5.445331 -5.390230 -10.632679 0.893805 0.000000 0.000000 0.000000 -11.062805 3.270972 17.697705 0.907527 -6.070539 -16.989252 -1.623082 22.587270 -14.888920 0.123804 -2.268119 -6.247289 0.000000 0.000000 0.000000 0.000000 0.000000 0.000000 0.000000 0.000000 0.000000 0.000000 0.000000 0.000000 0.000000 0.000000 0.000000 1.216390 -2.419674 9.148189 0.402494 -3.099933 2.868788 0.070263 -1.548420 -2.189060 5.075529 1.769865 -0.681432 3.056122 1.725324 12.963805 0.204480 1.205374 4.421501 0.000000 0.000000 0.000000 10.621205 20.133464 -49.856620 85.685890 -59.929552 56.264789 9.266699 -23.368310 13.608809 0.000000 0.000000 0.000000 -7.125000 0.000000 0.000000 -12.403551 16.399680 -8.602928 0.000000 0.000000 0.000000 -45.939992 -21.328502 27.332593 -159.066487 -31.749844 -113.984665 14.255118 -56.980756 42.777017 0.000000 0.000000 0.000000 7.125000 0.000000 0.000000 61.702899 62.189454 -31.891718
-0.962777 18.206029 5.450246 -5.516556 -10.335073 0.994782 0.000000 0.000000 0.000000 -10.923056 3.014467 17.674523 0.916494 -6.099645 -17.073846 -1.627994 22.594553 -14.794797 0.123434 -2.264736 -6.237959 0.000000 0.000000 0.000000 0.000000 0.000000 0.000000 0.000000 0.000000 0.000000 0.000000 0.000000 0.000000 0.000000 0.000000 0.000000 1.373763 -2.401290 9.111150 0.468352 -3.059644 2.837557 0.045050 -1.528459 -2.205103 4.681882 1.640223 -0.897542 2.977069 1.572110 12.897485 0.241574 1.109293 4.432400 0.000000 0.000000 0.000000 10.708734 19.900621 -50.178214 85.522269 -59.924134 56.123106 9.250129 -23.437734 13.643443 0.000000 0.000000 0.000000 -7.125000 0.000000 0.000000 -12.413489 16.366349 -8.619390 0.000000 0.000000 0.000000 -45.013535 -20.617444 26.630064 -159.229039 -31.559972 -114.070344 13.769297 -55.694776 41.262038 0.000000 0.000000 0.000000 7.125000 0.000000 0.000000 59.048003 61.452328 -28.991275
-0.963247 18.207802 5.454049 -5.588946 -9.936199 1.046788 0.000000 0.000000 0.000000 -10.828337 2.781773 17.648652 0.925306 -6.128243 -17.156909 -1.625751 22.530182 -14.546079 0.133806 -2.357764 -6.495564 0.000000 0.000000 0.000000 0.000000 0.000000 0.000000 0.000000 0.000000 0.000000 0.000000 0.000000 0.000000 0.000000 0.000000 0.000000 1.532963 -2.474359 9.019896 0.501936 -3.143138 2.832197 -0.004144 -1.569963 -2.167746 3.827682 1.329527 -1.207577 2.913835 1.185564 13.062644 0.358045 0.882777 4.540068 0.000000 0.000000 0.000000 10.806864 19.718963 -50.392046 85.446872 -59.921510 56.057966 9.454664 -23.488404 13.807287 0.000000 0.000000 0.000000 -7.125000 0.000000 0.000000 -12.268948 16.192663 -8.561530 0.000000 0.000000 0.000000 -43.125507 -20.312710 26.477944 -158.745627 -32.123554 -113.815077 9.942307 -49.998278 39.391283 0.000000 0.000000 0.000000 7.125000 0.000000 0.000000 53.143077 61.298197 -24.899006
-0.964032 18.210500 5.457016 -5.573013 -9.788981 1.106328 0.000000 0.000000 0.000000 -10.850816 2.601509 17.615793 0.927990 -6.136813 -17.181935 -1.627939 22.544002 -14.553379 0.127256 -2.298158 -6.330407 0.000000 0.000000 0.000000 0.000000 0.000000 0.000000 0.000000 0.000000 0.000000 0.000000 0.000000 0.000000 0.000000 0.000000 0.000000 1.648483 -2.523221 8.899859 0.456022 -3.201110 2.799547 -0.114114 -1.598646 -2.144935 2.671076 0.544097 -1.728654 2.470618 0.216143 13.417086 0.374262 0.339967 4.764292 0.000000 0.000000 0.000000 10.878604 19.687128 -50.335490 85.320743 -59.917080 55.948766 9.628424 -23.470096 13.861361 0.000000 0.000000 0.000000 -7.125000 0.000000 0.000000 -12.149327 16.128876 -8.491274 0.000000 0.000000 0.000000 -40.448685 -20.256687 28.841573 -157.680833 -33.333385 -113.238539 5.936902 -40.255947 35.139439 0.000000 0.000000 0.000000 7.125000 0.000000 0.000000 44.372149 59.295228 -17.738161
-0.967388 18.208868 5.463316 -5.574912 -9.995820 1.056903 0.000000 0.000000 0.000000 -10.855772 2.543985 17.767512 0.922496 -6.119129 -17.130531 -1.622048 22.607565 -15.007316 0.091734 -1.952633 -5.374768 0.000000 0.000000 0.000000 0.000000 0.000000 0.000000 0.000000 0.000000 0.000000 0.000000 0.000000 0.000000 0.000000 0.000000 0.000000 1.741969 -2.450501 8.835275 0.389867 -3.100311 2.830486 -0.249067 -1.548059 -2.084220 1.105656 -0.823862 -2.236078 1.509307 -1.420594 13.469413 0.246951 -0.583852 4.883930 0.000000 0.000000 0.000000 10.973448 19.634824 -50.176619 85.186830 -59.912236 55.832929 9.554499 -23.468125 13.887410 0.000000 0.000000 0.000000 -7.125000 0.000000 0.000000 -12.198528 16.107537 -8.533112 0.000000 0.000000 0.000000 -37.491589 -20.064482 33.300872 -156.548335 -34.578741 -112.606835 7.166469 -33.129554 29.315304 0.000000 0.000000 0.000000 7.125000 0.000000 0.000000 39.741571 54.627473 -10.654993
